<svg width="1028" height="1028" viewBox="0 0 1028 1028" fill="none" xmlns="http://www.w3.org/2000/svg">
<rect x="729.591" y="141" width="609.354" height="609.354" rx="112" transform="rotate(75 729.591 141)" fill="url(#paint0_linear_10_785)"/>
<path fill-rule="evenodd" clip-rule="evenodd" d="M387.179 588.91C382.515 593.574 376.189 596.195 369.593 596.195C362.996 596.195 356.67 593.574 352.006 588.91C347.342 584.246 344.722 577.92 344.722 571.324C344.722 564.728 347.342 558.402 352.006 553.737L434.855 470.913L435.029 470.739C441.798 464.109 450.896 460.396 460.371 460.396C469.846 460.396 478.944 464.109 485.713 470.739L485.887 470.913L528.169 513.195L586.508 451.5L560.657 425.649C558.053 423.041 556.28 419.721 555.562 416.107C554.844 412.493 555.213 408.747 556.623 405.342C558.033 401.938 560.42 399.027 563.482 396.979C566.545 394.93 570.146 393.835 573.831 393.831H664.609C669.554 393.831 674.296 395.796 677.792 399.292C681.288 402.788 683.252 407.53 683.252 412.474V503.253C683.249 506.937 682.154 510.539 680.105 513.601C678.056 516.664 675.146 519.051 671.742 520.461C668.337 521.87 664.591 522.24 660.977 521.522C657.363 520.804 654.042 519.031 651.435 516.427L621.681 486.648L554.468 557.764C551.146 561.192 547.181 563.93 542.798 565.82C538.415 567.71 533.702 568.715 528.93 568.777C524.157 568.84 519.42 567.958 514.989 566.183C510.558 564.408 506.522 561.775 503.113 558.435L502.939 558.261L460.358 515.706L387.179 588.91Z" fill="white"/>
<defs>
<linearGradient id="paint0_linear_10_785" x1="1338.94" y1="750.354" x2="729.591" y2="141" gradientUnits="userSpaceOnUse">
<stop stop-color="#0075FF"/>
<stop offset="1" stop-color="#00C2FF"/>
<stop offset="1.0001" stop-color="#00C2FF"/>
</linearGradient>
</defs>
</svg>
