<svg width="1028" height="1028" viewBox="0 0 1028 1028" fill="none" xmlns="http://www.w3.org/2000/svg">
<rect x="729.591" y="141" width="609.354" height="609.354" rx="112" transform="rotate(75 729.591 141)" fill="url(#paint0_linear_10_778)"/>
<path d="M674.771 361.96H370.36C363.021 361.96 355.982 364.872 350.792 370.056C345.602 375.24 342.687 382.272 342.687 389.603V638.397C342.687 645.728 345.602 652.76 350.792 657.944C355.982 663.128 363.021 666.04 370.36 666.04H674.771C682.11 666.04 689.149 663.128 694.339 657.944C699.529 652.76 702.444 645.728 702.444 638.397V389.603C702.444 382.272 699.529 375.24 694.339 370.056C689.149 364.872 682.11 361.96 674.771 361.96ZM461.684 544.408C464.619 546.608 466.56 549.882 467.079 553.511C467.598 557.14 466.653 560.826 464.451 563.759C462.249 566.691 458.971 568.63 455.338 569.149C451.705 569.667 448.015 568.723 445.079 566.523L389.732 525.057C388.014 523.77 386.619 522.101 385.658 520.181C384.697 518.262 384.197 516.146 384.197 514C384.197 511.854 384.697 509.738 385.658 507.819C386.619 505.899 388.014 504.23 389.732 502.943L445.079 461.477C448.015 459.277 451.705 458.333 455.338 458.851C458.971 459.37 462.249 461.309 464.451 464.241C466.653 467.174 467.598 470.86 467.079 474.489C466.56 478.118 464.619 481.392 461.684 483.592L421.09 514L461.684 544.408ZM563.54 421.048L508.193 614.554C507.721 616.33 506.899 617.995 505.776 619.45C504.653 620.905 503.25 622.122 501.651 623.029C500.051 623.937 498.286 624.516 496.46 624.734C494.633 624.952 492.781 624.804 491.012 624.299C489.244 623.793 487.594 622.94 486.159 621.79C484.724 620.64 483.533 619.216 482.656 617.601C481.779 615.986 481.233 614.212 481.05 612.384C480.867 610.555 481.051 608.709 481.591 606.952L536.939 413.446C538.002 409.986 540.382 407.081 543.567 405.355C546.752 403.629 550.488 403.22 553.971 404.215C557.455 405.211 560.409 407.532 562.198 410.679C563.987 413.827 564.469 417.55 563.54 421.048ZM655.399 525.057L600.052 566.523C597.116 568.723 593.426 569.667 589.793 569.149C586.16 568.63 582.882 566.691 580.68 563.759C578.478 560.826 577.533 557.14 578.052 553.511C578.571 549.882 580.512 546.608 583.448 544.408L624.041 514L583.448 483.592C581.994 482.503 580.769 481.138 579.843 479.577C578.918 478.015 578.309 476.286 578.052 474.489C577.795 472.692 577.895 470.862 578.346 469.104C578.797 467.346 579.59 465.693 580.68 464.241C581.77 462.789 583.136 461.566 584.7 460.641C586.263 459.716 587.994 459.108 589.793 458.851C591.592 458.595 593.423 458.695 595.184 459.145C596.944 459.595 598.598 460.388 600.052 461.477L655.399 502.943C657.118 504.23 658.512 505.899 659.473 507.819C660.434 509.738 660.934 511.854 660.934 514C660.934 516.146 660.434 518.262 659.473 520.181C658.512 522.101 657.118 523.77 655.399 525.057Z" fill="white"/>
<defs>
<linearGradient id="paint0_linear_10_778" x1="1338.94" y1="750.354" x2="729.591" y2="141" gradientUnits="userSpaceOnUse">
<stop stop-color="#0075FF"/>
<stop offset="1" stop-color="#00C2FF"/>
<stop offset="1.0001" stop-color="#00C2FF"/>
</linearGradient>
</defs>
</svg>
