<svg width="24" height="24" viewBox="0 0 24 24" fill="none" xmlns="http://www.w3.org/2000/svg">
<path d="M3.29618 20.6021L9.66018 14.2381M17.6742 11.4081L15.7692 17.1241C15.7386 17.2155 15.6865 17.2982 15.6173 17.3652C15.548 17.4322 15.4636 17.4816 15.3712 17.5091L3.69318 20.9811C3.58798 21.0123 3.47621 21.0141 3.37005 20.9862C3.2639 20.9584 3.16742 20.9019 3.09111 20.823C3.01481 20.7442 2.9616 20.6459 2.93728 20.5388C2.91296 20.4318 2.91846 20.3202 2.95318 20.2161L6.74518 8.84206C6.77236 8.76039 6.81679 8.68553 6.87546 8.62255C6.93412 8.55957 7.00565 8.50995 7.08518 8.47706L12.4722 6.25906C12.5817 6.21383 12.7022 6.20204 12.8184 6.22517C12.9346 6.24831 13.0413 6.30533 13.1252 6.38906L17.5292 10.7941C17.608 10.8728 17.6633 10.972 17.6889 11.0805C17.7145 11.1889 17.7094 11.3023 17.6742 11.4081Z" stroke="#39A7FF" stroke-width="1.5" stroke-linecap="round" stroke-linejoin="round"/>
<path d="M18.4034 3.18206L20.7674 5.54606C20.9451 5.71602 21.087 5.91975 21.1848 6.1453C21.2826 6.37085 21.3344 6.61367 21.3372 6.85951C21.3399 7.10535 21.2935 7.34926 21.2006 7.57692C21.1078 7.80457 20.9704 8.01139 20.7966 8.18524C20.6227 8.35909 20.4159 8.49646 20.1883 8.58928C19.9606 8.68211 19.7167 8.72853 19.4709 8.72581C19.225 8.72309 18.9822 8.67129 18.7567 8.57345C18.5311 8.47562 18.3274 8.33371 18.1574 8.15606L15.7924 5.79206C15.4588 5.44341 15.2751 4.978 15.2804 4.49551C15.2857 4.01302 15.4798 3.5518 15.821 3.2106C16.1621 2.86941 16.6234 2.67537 17.1059 2.67003C17.5884 2.6647 18.0548 2.84849 18.4034 3.18206Z" fill="#39A7FF" stroke="#39A7FF" stroke-width="1.5" stroke-linecap="round" stroke-linejoin="round"/>
<path d="M11.7811 12.116C11.6427 11.9727 11.4772 11.8585 11.2942 11.7799C11.1112 11.7012 10.9144 11.6599 10.7152 11.6581C10.516 11.6564 10.3185 11.6944 10.1341 11.7698C9.94981 11.8452 9.78233 11.9566 9.64149 12.0974C9.50065 12.2383 9.38927 12.4057 9.31385 12.5901C9.23843 12.7744 9.20047 12.9719 9.20221 13.1711C9.20394 13.3703 9.24531 13.5671 9.32393 13.7501C9.40254 13.9331 9.51682 14.0986 9.66008 14.237C9.94298 14.5103 10.3219 14.6614 10.7152 14.658C11.1085 14.6546 11.4847 14.4969 11.7628 14.2187C12.0409 13.9406 12.1987 13.5644 12.2021 13.1711C12.2055 12.7778 12.0543 12.3989 11.7811 12.116Z" stroke="#39A7FF" stroke-width="1.5" stroke-linecap="round" stroke-linejoin="round"/>
</svg>
