<svg width="813" height="801" viewBox="0 0 813 801" fill="none" xmlns="http://www.w3.org/2000/svg">
<path d="M638.5 548.5L282.5 564.5L746 428L206.5 564.5L638.5 306L260 408L462 295L228.5 344.5" stroke="#0D9CFF" stroke-width="124" stroke-linecap="round" stroke-linejoin="round"/>
<path d="M248.68 317.137C245.468 342.431 246.086 370.626 250.554 395.714C250.965 398.026 254.981 416.207 251.842 416.207" stroke="white" stroke-width="7" stroke-linecap="round"/>
<path d="M247.626 318.191C249.711 315.213 256.665 314.754 259.805 313.917C265.475 312.405 271.287 309.624 277.136 308.94C289.322 307.516 295.481 318.126 294.35 328.789C293.094 340.636 290.55 349.275 278.717 352.503C268.774 355.214 258.065 359.339 248.68 363.51" stroke="white" stroke-width="7" stroke-linecap="round"/>
<path d="M295.053 366.672C295.053 365.392 293.148 367.579 292.594 367.96C287.982 371.131 282.412 374.607 279.01 379.144C277.335 381.377 279.465 381.342 281.235 381.661C290.213 383.283 298.712 388.407 306.061 393.606C308.152 395.086 316.472 400.74 315.663 404.38C315.065 407.074 302.479 405.668 300.44 405.668C294.578 405.668 289.22 405.574 283.46 404.614" stroke="white" stroke-width="7" stroke-linecap="round"/>
<path d="M323.509 367.726C322.099 379.181 322.062 391.294 324.563 402.623C325.058 404.864 325.617 406.548 325.617 408.829" stroke="white" stroke-width="7" stroke-linecap="round"/>
<path d="M340.372 364.564C350.374 374.852 359.896 386.071 368.828 397.236" stroke="white" stroke-width="7" stroke-linecap="round"/>
<path d="M362.505 361.403C354.964 375.437 351.649 393.179 348.804 408.83" stroke="white" stroke-width="7" stroke-linecap="round"/>
<path d="M383.583 366.672C383.583 372.582 380.466 390.952 389.087 392.786C397.172 394.507 407.167 381.855 408.878 375.338C411.256 366.276 402.222 365.032 395.177 363.51C386.555 361.649 385.691 361.564 385.691 370.888" stroke="white" stroke-width="7" stroke-linecap="round"/>
<path d="M423.633 312.922C423.633 338.987 425.764 364.886 426.678 390.913C426.763 393.362 426.263 409.874 425.741 408.83" stroke="white" stroke-width="7" stroke-linecap="round"/>
<path d="M447.873 347.701C448.206 361.568 448.786 391.382 468.132 393.079C480.286 394.145 481.432 368.575 482.185 361.051C482.449 358.405 483.966 351.291 481.95 348.755C478.731 344.705 469.066 350.651 466.2 352.034C463.366 353.402 446.819 358.152 446.819 361.403" stroke="white" stroke-width="7" stroke-linecap="round"/>
<path d="M510.055 341.378C508.951 345.664 502.19 367.937 508.416 369.014C516.869 370.477 528.681 363.291 534.647 357.772C545.189 348.021 534.328 332.421 524.225 327.56C516.85 324.011 513.969 331.764 512.222 337.572C509.931 345.185 502.409 370.707 516.086 372.293C523.825 373.19 529.204 367.355 533.476 361.871C535.077 359.815 537.811 353.539 540.034 352.268C540.178 352.186 541.078 365.255 541.088 365.384C542.267 381.408 543.537 397.316 543.723 413.397C543.788 419.01 547.488 443.984 539.097 446.186C536.312 446.916 528.095 445.414 526.099 445.015C516.595 443.114 507.171 440.346 498.169 436.759C490.029 433.514 478.209 428.829 482.419 417.846C488.119 402.977 503.12 391.941 514.271 381.427" stroke="white" stroke-width="7" stroke-linecap="round"/>
<path d="M564.86 325.569C566.326 336.495 569.319 347.106 570.598 358.065C571.196 363.193 571.656 368.089 573.291 372.996" stroke="white" stroke-width="7" stroke-linecap="round"/>
<path d="M568.022 289.735C568.106 291.164 568.478 291.701 569.076 292.897" stroke="white" stroke-width="7" stroke-linecap="round"/>
<path d="M594.37 326.623C588.342 335.062 582.397 357.724 599.054 356.016C608.24 355.074 616.519 345.416 621.07 338.216C625.707 330.878 625.788 313.72 612.697 319.538C604.056 323.378 595.586 333.673 596.244 343.544C596.806 351.982 609.158 345.556 612.287 342.783C615.726 339.735 618.749 335.935 621.304 332.127C621.823 331.353 623.88 327.113 623.88 327.501C623.88 337.594 626.87 345.863 632.312 354.025" stroke="white" stroke-width="7" stroke-linecap="round"/>
<path d="M396.23 478.389C406.652 476.626 422.233 474.519 429.956 466.796" stroke="white" stroke-width="7" stroke-linecap="round"/>
<path d="M417.309 453.095C417.309 468.843 417.68 484.891 419.417 500.522" stroke="white" stroke-width="7" stroke-linecap="round"/>
<path d="M282.406 528.978C283.848 525.011 288.581 522.654 292.477 522.654C295.056 522.654 297.738 522.839 300.03 524.177C301.38 524.964 297.072 525.264 295.522 525.465C287.188 526.542 278.916 526.811 270.52 526.811C265.321 526.811 253.406 524.165 253.598 532.374C253.736 538.252 254.646 544.176 254.945 550.057C255.242 555.899 254.768 562.932 257.229 568.442C262.37 579.951 280.097 573.369 288.847 571.604C294.302 570.503 299.966 569.303 305.534 570.433C310.038 571.346 309.224 572.904 311.916 575.351" stroke="white" stroke-width="7" stroke-linecap="round"/>
<path d="M248.68 554.272C246.028 554.272 245.369 554.272 248.797 554.272C256.031 554.272 263.253 554.328 270.461 553.57C277.851 552.792 285.02 550.472 292.36 549.705C295.297 549.398 288.814 554.196 288.729 554.272" stroke="white" stroke-width="7" stroke-linecap="round"/>
<path d="M310.862 537.409C310.552 534.003 307.883 527.52 312.619 534.833C319.108 544.854 325.398 555.178 330.945 565.748C331.384 566.585 334.541 573.083 335.454 574.531C337.959 578.505 336.914 575.351 339.318 575.351" stroke="white" stroke-width="7" stroke-linecap="round"/>
<path d="M358.289 540.571C357.398 531.662 335.862 545.999 335.22 552.75C333.812 567.525 366.781 565.143 374.098 562.704" stroke="white" stroke-width="7" stroke-linecap="round"/>
<path d="M385.691 537.409C384.098 536.772 379.836 535.338 379.836 538.463C379.836 549.989 395.928 557.356 405.306 557.493C417.448 557.67 431.86 549.269 432.064 535.653C432.395 513.59 398.666 534.398 392.015 537.409" stroke="white" stroke-width="7" stroke-linecap="round"/>
<path d="M439.442 521.6C438.842 519.935 436.255 515.879 435.929 517.619C435.718 518.744 439.673 523.533 439.793 523.708C444.408 530.429 448.731 537.192 452.382 544.494C454.731 549.192 459.906 560.976 455.075 548.417C451.149 538.209 449.48 526.927 444.946 517.033C444.027 515.029 457.826 524.347 459.115 525.231C466.722 530.441 485.258 546.94 495.769 542.269C502.473 539.289 488.525 524.714 486.869 522.537C483.871 518.597 479.346 513.675 477.969 508.719C476.734 504.273 486.722 507.719 487.923 507.899" stroke="white" stroke-width="7" stroke-linecap="round"/>
<path d="M525.864 507.899C522.346 505.829 523.777 512.769 524.108 513.989C526.501 522.815 534.151 532.6 544.718 529.68C560.848 525.224 554.241 507.382 541.556 503.801C532.916 501.361 524.954 504.302 517.433 507.899" stroke="white" stroke-width="7" stroke-linecap="round"/>
<path d="M586.992 523.708C577.73 521.182 578.667 506.691 576.804 498.765C576.515 497.534 571.409 479.134 572.062 478.916C572.418 478.797 572.419 479.577 572.589 479.911C574.084 482.861 574.889 484.68 576.687 487.64C579.677 492.561 583.14 496.828 587.402 500.697C590.71 503.7 596.5 509.717 598.586 502.512C600.988 494.213 598.107 485.951 597.825 477.628C597.542 469.299 609.341 487.397 610.413 488.577C616.653 495.444 623.657 500.536 632.312 503.683" stroke="white" stroke-width="7" stroke-linecap="round"/>
<path d="M619.664 464.688C619.664 460.727 625.624 469.979 628.037 473.119C634.812 481.936 644.404 491.536 651.282 498.414" stroke="white" stroke-width="7" stroke-linecap="round"/>
<path d="M640.743 447.825C639.116 445.85 639.73 445.004 641.914 447.708C648.997 456.478 655.086 466.144 661.939 475.11C666.24 480.739 670.98 486.234 674.82 492.207C674.987 492.467 674.565 491.325 674.469 491.036" stroke="white" stroke-width="7" stroke-linecap="round"/>
<path d="M705.033 440.448C698.073 440.448 691.515 441.339 685.242 444.663C679.352 447.785 666.797 457.124 671.541 465.508C677.655 476.311 697.144 472.352 706.555 470.953C716.191 469.521 712.107 469.931 720.022 468.669C727.842 467.423 721.472 468.48 721.896 468.904" stroke="white" stroke-width="7" stroke-linecap="round"/>
<path d="M711.356 417.261C710.204 416.198 712.24 420.28 712.879 421.711C718.579 434.476 724.287 447.095 731.147 459.301C735.469 466.991 742.829 480.626 746.136 465.742" stroke="white" stroke-width="7" stroke-linecap="round"/>
<path d="M712.41 423.585C713.62 418.365 714.22 410.614 721.31 411.347C732.076 412.461 742.133 421.266 749.884 428.035C754.529 432.092 777.427 460.636 784.078 457.31" stroke="white" stroke-width="7" stroke-linecap="round"/>
<path d="M721.896 444.663C732.213 440.604 741.874 437.824 752.46 435.178" stroke="white" stroke-width="7" stroke-linecap="round"/>
</svg>
