<svg width="20" height="20" viewBox="0 0 24 24" fill="none" xmlns="http://www.w3.org/2000/svg">
<path fill-rule="evenodd" clip-rule="evenodd" d="M11.017 2.802C9.28125 2.98759 7.63344 3.66056 6.26402 4.74312C4.89459 5.82569 3.85945 7.27366 3.27822 8.9197C2.69699 10.5657 2.5934 12.3427 2.97943 14.0451C3.36545 15.7475 4.22533 17.306 5.45969 18.5403C6.69404 19.7747 8.25249 20.6345 9.95492 21.0206C11.6573 21.4066 13.4343 21.303 15.0803 20.7218C16.7263 20.1406 18.1743 19.1054 19.2569 17.736C20.3394 16.3666 21.0124 14.7188 21.198 12.983C20.5644 13.7881 19.7674 14.4497 18.8594 14.9243C17.9515 15.3989 16.9533 15.6757 15.9306 15.7364C14.9079 15.7972 13.8839 15.6404 12.9262 15.2766C11.9685 14.9128 11.0987 14.3501 10.3743 13.6257C9.64987 12.9013 9.0872 12.0315 8.72338 11.0738C8.35955 10.1161 8.20284 9.09213 8.26357 8.06944C8.32429 7.04674 8.60108 6.04852 9.07569 5.14059C9.55029 4.23265 10.2119 3.43561 11.017 2.802ZM1.25 12C1.25 6.063 6.063 1.25 12 1.25C12.717 1.25 13.075 1.821 13.137 2.276C13.196 2.714 13.034 3.271 12.531 3.575C11.7839 4.02586 11.1493 4.64082 10.6751 5.37331C10.201 6.10579 9.89974 6.93658 9.79425 7.80274C9.68875 8.6689 9.78177 9.54771 10.0662 10.3726C10.3507 11.1975 10.8192 11.9468 11.4362 12.5638C12.0532 13.1808 12.8025 13.6493 13.6274 13.9338C14.4523 14.2182 15.3311 14.3112 16.1973 14.2058C17.0634 14.1003 17.8942 13.799 18.6267 13.3249C19.3592 12.8507 19.9741 12.2161 20.425 11.469C20.729 10.966 21.286 10.804 21.724 10.863C22.179 10.925 22.75 11.283 22.75 12C22.75 17.937 17.937 22.75 12 22.75C6.063 22.75 1.25 17.937 1.25 12Z" fill="white"/>
</svg>
