<svg width="24" height="24" viewBox="0 0 24 24" fill="none" xmlns="http://www.w3.org/2000/svg">
<path d="M4.9993 13.18V15.99C4.9993 16.72 5.3993 17.4 6.0393 17.75L11.0393 20.48C11.6393 20.81 12.3593 20.81 12.9593 20.48L17.9593 17.75C18.5993 17.4 18.9993 16.72 18.9993 15.99V13.18L12.9593 16.48C12.3593 16.81 11.6393 16.81 11.0393 16.48L4.9993 13.18ZM11.0393 3.52003L2.6093 8.12003C1.9193 8.50003 1.9193 9.50003 2.6093 9.88003L11.0393 14.48C11.6393 14.81 12.3593 14.81 12.9593 14.48L20.9993 10.09V16C20.9993 16.55 21.4493 17 21.9993 17C22.5493 17 22.9993 16.55 22.9993 16V9.59003C22.9993 9.22003 22.7993 8.89003 22.4793 8.71003L12.9593 3.52003C12.6638 3.36245 12.3341 3.28003 11.9993 3.28003C11.6644 3.28003 11.3348 3.36245 11.0393 3.52003Z" fill="white"/>
</svg>
