<svg width="1028" height="1028" viewBox="0 0 1028 1028" fill="none" xmlns="http://www.w3.org/2000/svg">
<rect x="729.591" y="141" width="609.354" height="609.354" rx="112" transform="rotate(75 729.591 141)" fill="url(#paint0_linear_10_778)"/>
<path d="M601.213 546.667C602.52 535.887 603.5 525.107 603.5 514C603.5 502.893 602.52 492.113 601.213 481.333H656.42C659.033 491.787 660.667 502.73 660.667 514C660.667 525.27 659.033 536.213 656.42 546.667M572.303 637.48C582.103 619.35 589.617 599.75 594.843 579.333H643.027C627.202 606.582 602.097 627.223 572.303 637.48ZM568.22 546.667H491.78C490.147 535.887 489.167 525.107 489.167 514C489.167 502.893 490.147 491.95 491.78 481.333H568.22C569.69 491.95 570.833 502.893 570.833 514C570.833 525.107 569.69 535.887 568.22 546.667ZM530 644.013C516.443 624.413 505.5 602.69 498.803 579.333H561.197C554.5 602.69 543.557 624.413 530 644.013ZM464.667 448.667H416.973C432.631 421.342 457.72 400.667 487.533 390.52C477.733 408.65 470.383 428.25 464.667 448.667ZM416.973 579.333H464.667C470.383 599.75 477.733 619.35 487.533 637.48C457.778 627.228 432.723 606.58 416.973 579.333ZM403.58 546.667C400.967 536.213 399.333 525.27 399.333 514C399.333 502.73 400.967 491.787 403.58 481.333H458.787C457.48 492.113 456.5 502.893 456.5 514C456.5 525.107 457.48 535.887 458.787 546.667M530 383.823C543.557 403.423 554.5 425.31 561.197 448.667H498.803C505.5 425.31 516.443 403.423 530 383.823ZM643.027 448.667H594.843C589.724 428.44 582.154 408.913 572.303 390.52C602.357 400.81 627.347 421.553 643.027 448.667ZM530 350.667C439.677 350.667 366.667 424.167 366.667 514C366.667 557.319 383.875 598.863 414.506 629.494C429.673 644.661 447.679 656.692 467.495 664.9C487.312 673.109 508.551 677.333 530 677.333C573.319 677.333 614.863 660.125 645.494 629.494C676.125 598.863 693.333 557.319 693.333 514C693.333 492.551 689.109 471.312 680.9 451.495C672.692 431.679 660.661 413.673 645.494 398.506C630.327 383.339 612.322 371.308 592.505 363.1C572.689 354.891 551.449 350.667 530 350.667Z" fill="white"/>
<defs>
<linearGradient id="paint0_linear_10_778" x1="1338.94" y1="750.354" x2="729.591" y2="141" gradientUnits="userSpaceOnUse">
<stop stop-color="#0075FF"/>
<stop offset="1" stop-color="#00C2FF"/>
<stop offset="1.0001" stop-color="#00C2FF"/>
</linearGradient>
</defs>
</svg>
