<svg width="978" height="847" viewBox="0 0 978 847" fill="none" xmlns="http://www.w3.org/2000/svg">
<g clip-path="url(#clip0_8_272)">
<g clip-path="url(#clip1_8_272)">
<path d="M15.75 334.07C27.75 372.257 40.6933 410.137 54.58 447.71C60.84 464.6 66.25 482.88 75.84 498.25C84.33 511.85 96.93 521.09 112.03 526.19C128.8 531.85 147.03 532.44 164.51 532.73C167.13 532.73 168.94 530.95 169.82 528.73L206.56 434.07L195.75 432.61C199.175 465.472 208.533 497.439 223.37 526.96C226.91 533.96 230.46 541.51 235.37 547.66C240.28 553.81 246.6 555.45 254.05 555.45C271.94 555.45 289.86 554.81 307.75 554.45C309.202 554.429 310.589 553.843 311.616 552.816C312.643 551.789 313.229 550.402 313.25 548.95C312.825 491.629 315.864 434.335 322.35 377.38C323.13 370.507 323.963 363.64 324.85 356.78C325.71 350.1 327.18 343.22 327.08 336.45C326.91 324.67 320.52 316.71 309.6 312.83C297.43 308.51 283.82 306.76 271.01 305.83C260.66 305.07 245.86 303.69 241.38 315.74C239.13 321.74 240.67 328.39 241.66 334.54L245.46 358.24L253.46 407.5L262.66 402.15C251.602 392.367 242.035 381.021 234.26 368.47C227.69 357.86 221.08 345.78 209.48 339.93C185.6 327.88 160.78 347.93 152.06 369.58C145.55 385.77 145.06 403.51 142.18 420.52L150.26 417.24C138.52 408.49 135.92 392.73 135.31 379.04C134.66 364.54 136.24 350.13 134.16 335.68C132.27 322.52 127.5 308.89 116.76 300.36C102.87 289.36 84.76 291.55 68.42 294C46.3088 297.349 24.6651 303.273 3.92999 311.65C-0.550009 313.45 -1.99001 321.09 3.92999 322.26L22.93 325.99C29.85 327.35 32.81 316.75 25.86 315.38L6.85999 311.65V322.26C24.4232 315.163 42.6452 309.82 61.26 306.31C76.36 303.48 97.45 298.31 110.48 309.31C120.26 317.57 123.16 331.7 124.09 343.84C125.16 357.92 123.38 372.04 124.83 386.12C126.46 401.98 131.53 416.87 144.72 426.69C147.41 428.69 152.25 426.69 152.8 423.41C155.62 406.72 156.02 389.17 162.35 373.28C167.35 360.82 178.65 348.54 192.75 347.34C208.19 346.02 216.63 360.71 223.59 372.06C232.095 386.145 242.643 398.891 254.89 409.88C259.21 413.72 264.95 409.88 264.08 404.53C259.99 379.25 255.78 353.98 251.82 328.68C251.09 324.04 249.94 318.17 255.7 316.77C261.02 315.47 267.56 316.55 272.95 317C284.26 317.94 296.77 319.49 307.4 323.7C318.83 328.24 316.11 340.04 314.78 349.94C313.12 362.347 311.623 374.773 310.29 387.22C307.577 412.453 305.547 437.737 304.2 463.07C302.693 491.683 302.047 520.323 302.26 548.99L307.76 543.49L259.44 544.37C256.24 544.43 252.65 544.86 249.44 544.23C245.61 543.47 243.74 540.87 241.79 537.68C237.94 531.4 234.48 524.86 231.25 518.24C218.171 491.337 209.867 462.366 206.71 432.62C206.05 426.38 198.21 425.24 195.91 431.16L159.17 525.76L164.47 521.76C135.84 521.29 102.18 519.67 85.3 492.76C76.17 478.19 71.08 460.87 65.15 444.84C58.65 427.28 52.3567 409.647 46.27 391.94C39.35 371.78 32.7 351.533 26.32 331.2C24.21 324.47 13.58 327.35 15.71 334.13L15.75 334.07Z" fill="white"/>
<path d="M364.36 343.07C395.495 402.834 420.432 465.628 438.78 530.47C439.19 531.861 440.124 533.038 441.385 533.754C442.646 534.47 444.135 534.67 445.54 534.31C465.454 529.344 486.22 528.846 506.35 532.85C508.53 533.29 511.53 532.61 512.56 530.32C521.113 511.155 533.142 493.741 548.04 478.96L538.85 476.53C546.876 501.682 561.802 524.075 581.93 541.16C584.58 543.4 588.7 543.34 590.57 540.05C600.528 522.56 615.286 508.287 633.1 498.92C633.934 498.44 634.626 497.747 635.105 496.913C635.585 496.079 635.835 495.132 635.83 494.17L631.46 339.17C631.2 330.1 631.23 319.37 623.61 313.03C615.35 306.16 601.41 308.33 591.48 308.49C578.73 308.7 565.9 309.22 553.21 310.54C548.47 311.04 543.56 311.83 539.89 315.16C536.22 318.49 534.46 323.39 532.96 328.07C525.49 351.17 528.12 376.69 539.29 398.07L545.5 390C537.06 386.59 533.19 375.41 528.76 368.26C523.76 360.12 516.65 352.75 506.37 352.84C494.37 352.96 485.95 363.76 482.94 374.42C478.63 389.68 485.94 405.15 484.89 420.56L487.61 415.81C485.11 416.91 482.67 412.99 481.67 411.29C479.815 407.879 478.762 404.089 478.59 400.21C477.764 390.501 478.418 380.723 480.53 371.21C482.64 361.76 486.62 353.36 490.32 344.49C493.32 337.38 494.85 329.74 492.64 322.17C488.8 309.01 476.14 300.59 463.64 296.85C448.01 292.18 430.64 294.85 415.84 301.05C406.73 304.85 399.21 310.54 391.08 315.99C384.42 320.46 375.42 326.6 367.62 321.46L363.38 331.51C365.884 332.354 368.548 332.613 371.167 332.266C373.787 331.919 376.292 330.976 378.49 329.51C384.4 325.66 378.9 316.13 372.94 320.01C372.004 320.714 370.902 321.164 369.74 321.318C368.579 321.473 367.398 321.325 366.31 320.89C360.15 318.89 357.05 327.64 362.07 330.94C377.44 341.06 393.81 327.26 406.18 318.74C420.34 308.99 439.61 302.69 456.84 306.44C469.43 309.18 485.17 318.28 482.46 333.44C480.78 342.8 474.87 351.37 472.05 360.44C469.16 369.846 467.572 379.603 467.33 389.44C467.08 399.11 467.47 409.67 472.93 418.03C477.66 425.28 484.93 429.03 493.2 425.35C495 424.56 495.8 422.35 495.93 420.6C496.87 407.07 490.56 393.33 492.93 379.97C494.36 372.05 501.21 360.33 510.86 364.82C517.59 367.96 521.01 376.96 524.53 382.95C529.01 390.59 534.17 397.25 542.53 400.64C547.32 402.57 550.73 396.39 548.74 392.56C540.017 375.841 537.471 356.581 541.55 338.17C542.48 334.06 543.55 329.62 545.48 325.86C547.99 320.98 554.09 321.5 558.86 321.12C569.7 320.26 580.557 319.74 591.43 319.56C596.7 319.48 601.98 319.44 607.25 319.56C611.76 319.65 616.49 319.76 618.61 324.41C620.13 327.73 620.17 331.7 620.29 335.28C620.49 340.91 620.61 346.54 620.77 352.17L622.65 418.73L624.78 494.23L627.5 489.48C608.042 499.79 591.92 515.426 581.02 534.56L589.66 533.45C570.913 517.664 556.983 496.925 549.46 473.6C549.188 472.685 548.685 471.855 548 471.19C547.314 470.525 546.469 470.048 545.546 469.805C544.622 469.562 543.652 469.561 542.728 469.802C541.804 470.042 540.957 470.517 540.27 471.18C524.673 486.598 512.061 504.767 503.07 524.77L509.28 522.24C487.228 517.794 464.464 518.296 442.63 523.71L449.4 527.55C430.769 461.806 405.461 398.142 373.87 337.55C370.59 331.27 361.1 336.82 364.37 343.1L364.36 343.07Z" fill="white"/>
<path d="M658.34 319.7C657.52 319.27 657.75 319.38 658.12 319.02L648.93 316.59C661.937 351.022 672.533 386.317 680.64 422.22C684.64 440.02 688.027 457.94 690.8 475.98C691.95 483.53 692.44 491.46 695.49 498.55C698.54 505.64 704.32 510.27 711.68 512.75C720.97 515.87 731.15 517.26 740.79 518.75C751.517 520.443 762.3 521.663 773.14 522.41C774.104 522.431 775.056 522.188 775.892 521.709C776.729 521.23 777.42 520.532 777.89 519.69L806.89 451.18H797.46L812.97 485.41L820.31 501.62C822.54 506.53 824.42 511.85 827.75 516.15C834.57 524.96 846.32 523.67 856.34 524.09C868.21 524.59 880.45 526.02 892.34 525.51C902.48 525.08 907.8 518.31 910.97 509.34C914.85 498.34 918.06 487.05 921.78 475.98C929.367 453.4 937.503 431.013 946.19 408.82C956.077 383.533 966.673 358.533 977.98 333.82C979.51 330.49 978.31 326.94 974.7 325.74L927.01 309.83C919.44 307.31 911.9 304.47 904.23 302.28C897.75 300.43 890.67 299.91 884.84 303.9C879.62 307.48 876.59 313.38 873.65 318.8C870.057 325.393 866.723 332.12 863.65 338.98C857.345 353.126 852.146 367.74 848.1 382.69L857.29 380.26C841.36 361.89 814.46 347.07 789.73 355.72C769.18 362.92 752.95 386.16 760.94 408.01L767.7 401.24C758.44 398.36 765.51 380.91 767.78 375.44L777.05 353.07C779.94 346.07 784.05 338.79 785.54 331.39C788.8 315.17 771.54 312.91 759.86 311.13C743.86 308.677 727.783 306.84 711.63 305.62C692.72 304.2 673.75 303.7 654.79 304.01V315.01L669.79 313.92C676.79 313.41 676.86 302.41 669.79 302.92L654.79 304.01C647.79 304.52 647.63 315.13 654.79 315.01C675.701 314.637 696.618 315.325 717.46 317.07C728.05 317.96 738.61 319.07 749.13 320.58C754.32 321.3 759.49 322.08 764.65 322.95C767.3 323.39 772.89 323.61 774.56 326.19C776.56 329.24 772.03 336.56 770.85 339.39L764.92 353.7C761.38 362.25 757.08 370.81 754.42 379.7C750.93 391.33 750.86 407.51 764.74 411.83C768.54 413.01 772.95 409.01 771.51 405.07C765.29 388.07 778.7 369.96 795.17 365.51C815.75 359.96 836.52 373.1 849.44 388.07C852.19 391.26 857.61 389.42 858.63 385.64C862.166 372.477 866.648 359.587 872.04 347.07C874.78 340.737 877.753 334.51 880.96 328.39C883.46 323.62 885.96 316.9 890.35 313.49C895.35 309.62 902.97 313.49 908.13 315.2L928.7 322.07L971.7 336.41L968.42 328.33C950.267 368.05 933.86 408.503 919.2 449.69C915.58 459.87 912.08 470.083 908.7 480.33C907 485.457 905.333 490.593 903.7 495.74C902.25 500.3 901.18 505.24 899.03 509.54C896.75 514.09 893.78 514.66 888.88 514.54C882.95 514.36 877.03 514.05 871.1 513.8L855.3 513.14C850.39 512.93 842.7 514.03 838.3 511.41C834.47 509.11 832.68 502.68 830.95 498.86L823.2 481.75L806.88 445.75C805.27 442.22 798.88 442.08 797.38 445.75L768.38 514.25L773.13 511.53C755.25 510.339 737.493 507.721 720.03 503.7C712.6 501.96 706.9 499.43 704.59 491.7C702.47 484.54 701.98 476.8 700.82 469.45C695.475 435.532 687.916 402 678.19 369.07C672.663 350.403 666.443 331.93 659.53 313.65C658.09 309.81 653.53 308.17 650.34 311.22C644.96 316.37 646.1 325.71 652.79 329.22C659.07 332.47 664.64 322.98 658.34 319.72V319.7Z" fill="white"/>
<path d="M48.2501 359.77C55.9301 362.57 58.8101 372.01 61.1101 379.02C64.3644 388.943 68.1328 398.689 72.4001 408.22C85.6956 437.841 103.781 465.069 125.93 488.81C128.13 491.17 131.66 487.63 129.46 485.28C100.913 454.638 79.3239 418.19 66.1701 378.43C63.1701 369.23 59.5201 358.58 49.5801 354.95C49.2636 354.863 48.933 354.839 48.6072 354.879C48.2814 354.919 47.9667 355.024 47.6812 355.186C47.3957 355.348 47.1448 355.564 46.943 355.823C46.7412 356.082 46.5924 356.379 46.5051 356.695C46.4178 357.011 46.3936 357.342 46.4341 357.668C46.4745 357.994 46.5787 358.308 46.7407 358.594C46.9028 358.879 47.1195 359.13 47.3785 359.332C47.6374 359.534 47.9336 359.683 48.2501 359.77Z" fill="white"/>
<path d="M259.75 537.07C274.154 532.708 289.101 530.402 304.15 530.22C307.36 530.22 307.37 525.22 304.15 525.22C288.654 525.396 273.259 527.753 258.42 532.22C255.35 533.14 256.66 537.97 259.75 537.04V537.07Z" fill="white"/>
<path d="M465.36 504.68C470.267 504.887 475.183 505.04 480.11 505.14C484.74 505.23 489.7 505.73 494.26 504.67C498.53 503.67 501.43 500.67 504.14 497.44C506.761 494.241 509.733 491.346 513 488.81C516.696 485.999 520.748 483.689 525.05 481.94C525.678 481.747 526.208 481.322 526.533 480.752C526.858 480.181 526.954 479.508 526.8 478.87C526.618 478.233 526.193 477.693 525.617 477.366C525.041 477.039 524.36 476.95 523.72 477.12C515.879 480.217 508.813 484.996 503.02 491.12C500.46 493.86 498.26 497.66 494.72 499.26C492.945 499.962 491.048 500.302 489.14 500.26C486.79 500.31 484.43 500.26 482.07 500.2C476.497 500.107 470.927 499.94 465.36 499.7C462.14 499.56 462.15 504.56 465.36 504.7V504.68Z" fill="white"/>
<path d="M608.89 363.5L605.37 405.97C604.49 416.64 602.68 428.11 605.94 438.57C607.42 443.89 610.838 448.463 615.52 451.39C618.29 453.04 620.81 448.72 618.04 447.07C610.19 442.4 609.04 432.22 609.14 423.88C609.19 418.23 609.83 412.59 610.29 406.96L611.97 386.71L613.89 363.5C613.885 362.839 613.62 362.206 613.152 361.738C612.684 361.27 612.051 361.005 611.39 361C610.731 361.013 610.102 361.28 609.636 361.746C609.17 362.212 608.903 362.841 608.89 363.5Z" fill="white"/>
<path d="M546.26 425.65C547.98 416.38 557.67 409.23 567 410.86C567.64 411.017 568.315 410.923 568.888 410.597C569.461 410.272 569.887 409.74 570.08 409.11C570.25 408.47 570.161 407.789 569.834 407.213C569.507 406.637 568.967 406.212 568.33 406.03C556.4 403.95 543.69 412.23 541.44 424.32C541.281 424.957 541.373 425.631 541.697 426.203C542.02 426.774 542.552 427.199 543.18 427.39C543.819 427.563 544.5 427.477 545.077 427.151C545.653 426.826 546.078 426.286 546.26 425.65Z" fill="white"/>
<path d="M685.02 361.48C684.02 379.99 688.27 398.21 691.41 416.33C693.085 425.183 694.104 434.147 694.46 443.15C694.594 447.61 694.417 452.074 693.93 456.51C693.51 460.3 692.65 464.02 692.22 467.8C691.39 475 692.06 483.58 699.74 486.64C700.378 486.812 701.058 486.726 701.632 486.401C702.207 486.075 702.63 485.536 702.81 484.9C702.975 484.261 702.885 483.584 702.561 483.009C702.236 482.435 701.702 482.009 701.07 481.82C698.92 480.96 697.85 479.01 697.3 476.59C696.789 473.63 696.769 470.606 697.24 467.64C697.65 464.13 698.46 460.53 698.88 456.95C699.385 452.593 699.585 448.205 699.48 443.82C699.12 425.97 694.73 408.54 691.98 390.98C690.295 381.242 689.625 371.356 689.98 361.48C690.15 358.26 685.15 358.27 684.98 361.48H685.02Z" fill="white"/>
<path d="M758.46 507.53L795.36 463L805.85 450.33C806.304 449.852 806.557 449.219 806.557 448.56C806.557 447.901 806.304 447.268 805.85 446.79C805.379 446.328 804.745 446.069 804.085 446.069C803.425 446.069 802.791 446.328 802.32 446.79L765.42 491.33L754.93 503.99C754.476 504.468 754.223 505.101 754.223 505.76C754.223 506.419 754.476 507.052 754.93 507.53C755.4 507.995 756.034 508.255 756.695 508.255C757.356 508.255 757.99 507.995 758.46 507.53Z" fill="white"/>
<path d="M823.97 447.07C836.187 455.48 846.091 466.828 852.77 480.07C854.637 483.765 856.232 487.592 857.54 491.52C857.94 492.69 859.3 493.79 860.62 493.27C872.516 488.558 885.745 488.472 897.7 493.03C898.34 493.202 899.023 493.115 899.599 492.788C900.176 492.46 900.6 491.918 900.78 491.28C900.941 490.641 900.849 489.965 900.523 489.393C900.197 488.82 899.662 488.397 899.03 488.21C886.211 483.369 872.052 483.451 859.29 488.44L862.36 490.19C857.358 475.248 848.662 461.813 837.08 451.13C833.74 448.104 830.192 445.317 826.46 442.79C825.886 442.461 825.206 442.371 824.566 442.539C823.926 442.708 823.378 443.121 823.04 443.69C822.718 444.265 822.631 444.942 822.797 445.579C822.962 446.217 823.369 446.765 823.93 447.11L823.97 447.07Z" fill="white"/>
<path d="M913.79 419.62C920.951 401.285 931.087 384.256 943.79 369.22C947.4 364.94 951.22 360.83 955.21 356.9C957.51 354.64 953.97 351.11 951.67 353.37C937.181 367.632 925.146 384.188 916.05 402.37C913.45 407.57 911.05 412.9 908.99 418.37C908.821 419.01 908.909 419.691 909.236 420.267C909.563 420.843 910.103 421.268 910.74 421.45C911.378 421.606 912.053 421.512 912.624 421.186C913.195 420.861 913.619 420.329 913.81 419.7L913.79 419.62Z" fill="white"/>
<path d="M271.46 514.19C271.858 514.19 272.239 514.032 272.521 513.751C272.802 513.469 272.96 513.088 272.96 512.69C272.96 512.292 272.802 511.911 272.521 511.629C272.239 511.348 271.858 511.19 271.46 511.19C271.062 511.19 270.681 511.348 270.399 511.629C270.118 511.911 269.96 512.292 269.96 512.69C269.96 513.088 270.118 513.469 270.399 513.751C270.681 514.032 271.062 514.19 271.46 514.19Z" fill="white"/>
<path d="M403.88 410.2C414.62 420.83 421.08 434.77 426.72 448.57C432.36 462.37 437.37 476.85 445.59 489.48C450.026 496.479 455.703 502.609 462.34 507.57C463.89 508.71 465.34 506.11 463.85 504.98C451.93 496.25 444.53 483.16 438.66 469.89C432.56 456.06 427.86 441.6 420.66 428.26C416.795 420.844 411.855 414.041 406 408.07C405.718 407.789 405.335 407.631 404.937 407.632C404.538 407.633 404.156 407.793 403.875 408.075C403.594 408.357 403.437 408.74 403.438 409.139C403.438 409.537 403.598 409.919 403.88 410.2Z" fill="white"/>
</g>
</g>
<defs>
<clipPath id="clip0_8_272">
<rect width="978" height="847" fill="white"/>
</clipPath>
<clipPath id="clip1_8_272">
<rect width="978.57" height="263.48" fill="white" transform="translate(0 292)"/>
</clipPath>
</defs>
</svg>
