<svg width="978" height="847" viewBox="0 0 978 847" fill="none" xmlns="http://www.w3.org/2000/svg">
<path d="M165.197 496.334C157.017 483.27 173.996 450.677 178.379 438.51C188.183 411.29 191.56 386.842 191.56 358.014C191.56 338.729 189.758 379.839 189.758 382.175C189.758 419.395 196.456 454.502 201.362 491.067C202.753 501.43 204.803 497.249 212.065 490.38C238.83 465.063 266.244 433.935 276.96 397.632C280.126 386.907 281.599 375.766 282.593 364.655C283.236 357.466 282.082 379.083 281.804 386.297C280.719 414.543 274.804 469.849 307.379 483.968C331.676 494.499 365.158 467.478 381.738 452.365C412.747 424.1 444.256 374.275 436.267 329.617C428.792 287.832 395.52 341.665 389.849 354.808C380.752 375.896 371.592 323.276 369 346C367.442 359.661 369.226 454.118 377.907 466.334C393.699 488.557 437.119 458.672 451.589 449.159C481.954 429.197 513.941 399.609 521.216 361.678C524.481 344.657 511.132 350.093 501.5 357.213C473.077 378.221 458.592 413.329 467.024 448.243C482.915 514.037 566.818 481.812 598.391 447.556C608.729 436.339 627.849 406.846 615.629 390.533C603.331 374.118 577.42 381.925 570.5 390.533C555.182 409.587 536.815 461.496 545.551 487.174C558.186 524.308 612.986 518.855 640.302 507.67C679.609 491.576 713.868 452.854 721.984 410.113C725.421 392.014 728.891 336.934 702.943 335C664.361 332.124 649.758 411.086 653.709 438.396C657.801 466.672 674.689 483.527 702.943 480.304C738.788 476.215 761.885 449.468 782.146 421.449C787.86 413.548 805.586 390.868 801.525 379.312C799.869 374.599 791.974 382.956 791.385 383.663C782.78 393.999 777.791 408.197 774.936 421.22C771.966 434.767 769.743 460.952 783.611 470.113C792.99 476.309 805.18 444.247 807.834 438.854C808.095 438.323 818.854 412.018 815.27 412.747C804.662 414.903 794.272 448.099 789.808 457.174" stroke="#31ABFF" stroke-width="101" stroke-linecap="round"/>
<g clip-path="url(#clip0_8_272)">
<path d="M158.025 361.38C166.425 388.047 175.486 414.5 185.206 440.74C189.588 452.535 193.375 465.3 200.088 476.034C206.031 485.531 214.851 491.984 225.421 495.546C237.16 499.498 249.921 499.91 262.157 500.113C263.991 500.113 265.258 498.87 265.874 497.319L291.592 431.214L284.025 430.194C286.423 453.143 292.973 475.468 303.359 496.083C305.837 500.972 308.322 506.244 311.76 510.539C315.197 514.834 319.621 515.979 324.836 515.979C337.359 515.979 349.903 515.532 362.426 515.281C363.442 515.266 364.413 514.857 365.132 514.14C365.851 513.423 366.261 512.454 366.276 511.44C365.978 471.41 368.106 431.399 372.646 391.625C373.192 386.825 373.775 382.03 374.396 377.239C374.998 372.574 376.027 367.769 375.957 363.042C375.838 354.815 371.365 349.256 363.721 346.547C355.202 343.53 345.675 342.308 336.708 341.658C329.463 341.128 319.103 340.164 315.967 348.579C314.392 352.769 315.47 357.413 316.163 361.708L318.823 378.259L324.423 412.659L330.863 408.923C323.122 402.091 316.425 394.167 310.982 385.403C306.383 377.993 301.756 369.557 293.636 365.472C276.92 357.057 259.546 371.059 253.442 386.178C248.885 397.484 248.542 409.873 246.526 421.752L252.182 419.461C243.964 413.35 242.144 402.344 241.717 392.784C241.262 382.658 242.368 372.595 240.912 362.504C239.589 353.314 236.25 343.795 228.732 337.838C219.009 330.157 206.332 331.686 194.894 333.397C179.416 335.736 164.266 339.872 149.751 345.723C146.615 346.98 145.607 352.315 149.751 353.132L163.051 355.737C167.895 356.687 169.967 349.284 165.102 348.327L151.802 345.723V353.132C164.097 348.176 176.852 344.445 189.882 341.993C200.452 340.017 215.215 336.407 224.336 344.089C231.182 349.857 233.212 359.724 233.863 368.202C234.612 378.035 233.366 387.896 234.381 397.728C235.522 408.804 239.071 419.203 248.304 426.06C250.187 427.457 253.575 426.06 253.96 423.77C255.934 412.114 256.214 399.858 260.645 388.762C264.145 380.06 272.055 371.485 281.925 370.647C292.733 369.725 298.641 379.983 303.513 387.91C309.467 397.746 316.851 406.647 325.424 414.321C328.448 417.003 332.466 414.321 331.857 410.585C328.994 392.931 326.047 375.284 323.275 357.615C322.764 354.375 321.959 350.276 325.991 349.298C329.715 348.39 334.293 349.145 338.066 349.459C345.983 350.115 354.74 351.198 362.181 354.138C370.182 357.308 368.278 365.549 367.347 372.462C366.185 381.126 365.137 389.805 364.204 398.497C362.304 416.118 360.883 433.775 359.941 451.466C358.886 471.448 358.433 491.449 358.583 511.468L362.433 507.627L328.609 508.242C326.369 508.283 323.856 508.584 321.609 508.144C318.928 507.613 317.618 505.797 316.253 503.57C313.558 499.184 311.137 494.617 308.876 489.994C299.72 471.207 293.908 450.975 291.697 430.201C291.235 425.844 285.747 425.048 284.137 429.182L258.419 495.245L262.129 492.452C242.088 492.124 218.526 490.992 206.71 472.2C200.319 462.025 196.756 449.93 192.605 438.735C188.055 426.472 183.65 414.158 179.389 401.793C174.545 387.714 169.89 373.575 165.424 359.375C163.947 354.675 156.506 356.687 157.997 361.421L158.025 361.38Z" fill="white"/>
<path d="M402.052 367.664C423.847 409.401 441.303 453.252 454.146 498.534C454.434 499.506 455.087 500.328 455.97 500.828C456.853 501.328 457.895 501.467 458.878 501.216C472.818 497.748 487.355 497.4 501.446 500.196C502.972 500.504 505.072 500.029 505.793 498.43C511.779 485.046 520.2 472.885 530.629 462.563L524.196 460.866C529.814 478.43 540.262 494.068 554.352 506C556.207 507.564 559.091 507.522 560.4 505.224C567.37 493.01 577.701 483.043 590.171 476.502C590.754 476.166 591.239 475.683 591.574 475.1C591.91 474.517 592.085 473.856 592.082 473.184L589.023 364.941C588.841 358.607 588.862 351.114 583.528 346.686C577.746 341.889 567.988 343.404 561.037 343.516C552.112 343.662 543.131 344.025 534.248 344.947C530.93 345.296 527.493 345.848 524.924 348.174C522.355 350.499 521.123 353.921 520.073 357.189C514.844 373.321 516.685 391.143 524.504 406.073L528.851 400.438C522.943 398.056 520.234 390.249 517.133 385.256C513.633 379.571 508.656 374.424 501.46 374.487C493.06 374.571 487.166 382.113 485.059 389.558C482.042 400.214 487.159 411.018 486.424 421.779L488.328 418.462C486.578 419.23 484.87 416.493 484.17 415.306C482.871 412.923 482.134 410.277 482.014 407.568C481.435 400.788 481.893 393.959 483.372 387.316C484.849 380.717 487.635 374.85 490.225 368.656C492.325 363.691 493.396 358.356 491.849 353.069C489.161 343.879 480.299 337.999 471.548 335.387C460.607 332.126 448.448 333.99 438.088 338.32C431.711 340.974 426.447 344.947 420.756 348.753C416.094 351.875 409.794 356.163 404.334 352.573L401.366 359.592C403.119 360.181 404.984 360.362 406.818 360.12C408.651 359.877 410.405 359.219 411.943 358.195C416.08 355.506 412.23 348.851 408.058 351.561C407.403 352.052 406.631 352.367 405.819 352.474C405.006 352.582 404.179 352.479 403.417 352.175C399.105 350.778 396.935 356.889 400.449 359.194C411.208 366.261 422.667 356.624 431.326 350.674C441.238 343.865 454.727 339.465 466.788 342.084C475.602 343.998 486.62 350.352 484.723 360.939C483.547 367.476 479.41 373.461 477.436 379.795C475.412 386.363 474.301 393.177 474.131 400.047C473.956 406.8 474.229 414.174 478.051 420.012C481.362 425.075 486.452 427.694 492.241 425.124C493.501 424.573 494.061 423.029 494.152 421.807C494.81 412.359 490.393 402.763 492.052 393.433C493.053 387.903 497.848 379.718 504.603 382.853C509.314 385.046 511.708 391.331 514.172 395.514C517.308 400.85 520.92 405.501 526.772 407.868C530.125 409.216 532.512 404.9 531.119 402.226C525.013 390.55 523.23 377.1 526.086 364.243C526.737 361.372 527.486 358.272 528.837 355.646C530.594 352.238 534.864 352.601 538.203 352.336C545.791 351.735 553.39 351.372 561.002 351.246C564.691 351.191 568.387 351.163 572.076 351.246C575.233 351.309 578.544 351.386 580.028 354.633C581.092 356.952 581.12 359.724 581.204 362.224C581.344 366.156 581.428 370.088 581.54 374.019L582.856 420.501L584.347 473.226L586.251 469.909C572.63 477.109 561.345 488.029 553.715 501.391L559.763 500.615C546.64 489.592 536.888 475.108 531.623 458.819C531.432 458.18 531.08 457.601 530.6 457.136C530.121 456.672 529.529 456.339 528.883 456.169C528.236 456 527.557 455.999 526.91 456.167C526.263 456.335 525.671 456.667 525.19 457.129C514.272 467.896 505.443 480.584 499.15 494.554L503.497 492.787C488.06 489.682 472.126 490.033 456.841 493.814L461.58 496.495C448.539 450.583 430.823 406.123 408.709 363.81C406.413 359.424 399.77 363.3 402.059 367.685L402.052 367.664Z" fill="white"/>
<path d="M607.839 351.344C607.265 351.044 607.426 351.121 607.685 350.869L601.252 349.172C610.357 373.218 617.773 397.866 623.449 422.939C626.249 435.369 628.619 447.883 630.561 460.482C631.366 465.754 631.709 471.292 633.844 476.243C635.979 481.194 640.025 484.428 645.177 486.16C651.68 488.339 658.806 489.309 665.554 490.35C673.062 491.532 680.611 492.384 688.199 492.906C688.874 492.92 689.54 492.751 690.125 492.416C690.711 492.082 691.195 491.594 691.524 491.006L711.824 443.163H705.223L716.08 467.067L721.218 478.387C722.779 481.816 724.095 485.531 726.426 488.534C731.2 494.686 739.425 493.786 746.439 494.079C754.748 494.428 763.316 495.427 771.639 495.071C778.737 494.77 782.461 490.043 784.68 483.778C787.396 476.097 789.643 468.212 792.247 460.482C797.558 444.713 803.253 429.079 809.334 413.581C816.255 395.922 823.672 378.463 831.587 361.205C832.658 358.879 831.818 356.4 829.291 355.562L795.908 344.452C790.609 342.692 785.331 340.708 779.962 339.179C775.426 337.887 770.47 337.524 766.389 340.31C762.735 342.81 760.614 346.931 758.556 350.716C756.04 355.32 753.707 360.018 751.556 364.808C747.142 374.687 743.503 384.893 740.671 395.333L747.104 393.636C735.953 380.807 717.123 370.458 699.812 376.499C685.427 381.527 674.066 397.756 679.659 413.015L684.391 408.287C677.909 406.276 682.858 394.09 684.447 390.27L690.936 374.648C692.959 369.76 695.836 364.676 696.879 359.508C699.161 348.181 687.079 346.602 678.903 345.359C667.703 343.646 656.449 342.363 645.142 341.511C631.905 340.52 618.626 340.171 605.354 340.387V348.069L615.854 347.308C620.754 346.952 620.803 339.27 615.854 339.626L605.354 340.387C600.454 340.743 600.342 348.153 605.354 348.069C619.992 347.809 634.633 348.289 649.223 349.508C656.636 350.129 664.028 350.904 671.392 351.959C675.025 352.462 678.644 353.006 682.256 353.614C684.111 353.921 688.024 354.075 689.193 355.876C690.593 358.006 687.422 363.118 686.596 365.095L682.445 375.088C679.967 381.059 676.957 387.037 675.095 393.245C672.652 401.367 672.603 412.666 682.319 415.683C684.979 416.507 688.066 413.713 687.058 410.962C682.704 399.09 692.091 386.443 703.62 383.335C718.026 379.46 732.565 388.636 741.609 399.09C743.534 401.318 747.328 400.033 748.042 397.393C750.517 388.201 753.654 379.199 757.429 370.458C759.347 366.035 761.428 361.687 763.673 357.413C765.423 354.082 767.173 349.389 770.246 347.007C773.746 344.305 779.08 347.007 782.692 348.202L797.091 352.999L827.191 363.014L824.895 357.371C812.188 385.109 800.703 413.36 790.441 442.122C787.907 449.231 785.457 456.364 783.091 463.519C781.901 467.1 780.734 470.687 779.591 474.281C778.576 477.465 777.827 480.915 776.322 483.918C774.726 487.095 772.647 487.494 769.217 487.41C765.066 487.284 760.922 487.068 756.771 486.893L745.711 486.432C742.274 486.285 736.891 487.054 733.811 485.224C731.13 483.618 729.877 479.127 728.666 476.46L723.241 464.511L711.817 439.371C710.69 436.905 706.217 436.808 705.167 439.371L684.867 487.207L688.192 485.308C675.675 484.476 663.246 482.648 651.022 479.84C645.821 478.625 641.831 476.858 640.214 471.46C638.73 466.459 638.387 461.054 637.575 455.921C633.833 432.235 628.542 408.818 621.734 385.821C617.865 372.786 613.511 359.885 608.672 347.119C607.664 344.438 604.472 343.292 602.239 345.422C598.473 349.019 599.271 355.541 603.954 357.992C608.35 360.262 612.249 353.635 607.839 351.358V351.344Z" fill="white"/>
<path d="M180.775 379.327C186.151 381.282 188.167 387.875 189.777 392.77C192.055 399.699 194.693 406.506 197.68 413.162C206.987 433.848 219.647 452.862 235.151 469.441C236.691 471.089 239.162 468.617 237.622 466.976C217.639 445.577 202.527 420.124 193.319 392.358C191.219 385.933 188.664 378.496 181.706 375.961C181.484 375.9 181.253 375.883 181.025 375.911C180.797 375.939 180.577 376.012 180.377 376.125C180.177 376.239 180.001 376.39 179.86 376.571C179.719 376.752 179.615 376.958 179.554 377.179C179.492 377.4 179.475 377.631 179.504 377.859C179.532 378.086 179.605 378.306 179.718 378.506C179.832 378.705 179.984 378.88 180.165 379.021C180.346 379.162 180.553 379.266 180.775 379.327Z" fill="white"/>
<path d="M328.825 503.143C338.908 500.097 349.371 498.487 359.905 498.36C362.152 498.36 362.159 494.868 359.905 494.868C349.058 494.991 338.282 496.637 327.894 499.756C325.745 500.399 326.662 503.772 328.825 503.122V503.143Z" fill="white"/>
<path d="M472.753 480.524C476.187 480.668 479.629 480.775 483.078 480.845C486.319 480.908 489.791 481.257 492.983 480.517C495.972 479.819 498.002 477.724 499.899 475.468C501.733 473.234 503.814 471.212 506.101 469.441C508.688 467.478 511.524 465.865 514.536 464.644C514.975 464.509 515.346 464.212 515.574 463.814C515.801 463.415 515.868 462.946 515.761 462.5C515.633 462.055 515.336 461.678 514.933 461.449C514.53 461.221 514.053 461.159 513.605 461.278C508.116 463.44 503.17 466.778 499.115 471.054C497.323 472.968 495.783 475.622 493.305 476.739C492.062 477.23 490.734 477.467 489.399 477.437C487.754 477.472 486.102 477.437 484.45 477.395C480.548 477.33 476.649 477.214 472.753 477.046C470.499 476.949 470.506 480.44 472.753 480.538V480.524Z" fill="white"/>
<path d="M573.224 381.932L570.76 411.59C570.144 419.042 568.877 427.052 571.159 434.356C572.195 438.071 574.587 441.265 577.865 443.309C579.804 444.461 581.568 441.445 579.629 440.292C574.134 437.031 573.329 429.922 573.399 424.098C573.434 420.152 573.882 416.213 574.204 412.282L575.38 398.14L576.724 381.932C576.72 381.47 576.535 381.028 576.207 380.701C575.88 380.375 575.437 380.189 574.974 380.186C574.512 380.195 574.072 380.382 573.746 380.707C573.42 381.033 573.233 381.471 573.224 381.932Z" fill="white"/>
<path d="M529.383 425.334C530.587 418.86 537.37 413.867 543.901 415.005C544.348 415.115 544.821 415.049 545.222 414.822C545.623 414.594 545.921 414.223 546.057 413.783C546.175 413.336 546.113 412.86 545.884 412.458C545.655 412.056 545.277 411.759 544.832 411.632C536.481 410.18 527.584 415.962 526.009 424.405C525.897 424.85 525.961 425.321 526.188 425.72C526.415 426.119 526.787 426.416 527.226 426.549C527.674 426.669 528.151 426.61 528.554 426.382C528.958 426.155 529.255 425.778 529.383 425.334Z" fill="white"/>
<path d="M626.515 380.521C625.815 393.447 628.79 406.171 630.988 418.825C632.16 425.008 632.873 431.268 633.123 437.555C633.216 440.67 633.092 443.787 632.752 446.885C632.458 449.532 631.856 452.129 631.555 454.769C630.974 459.797 631.443 465.789 636.819 467.926C637.265 468.046 637.741 467.986 638.143 467.759C638.546 467.531 638.842 467.155 638.968 466.711C639.083 466.265 639.02 465.791 638.793 465.39C638.566 464.989 638.192 464.692 637.75 464.56C636.245 463.959 635.496 462.598 635.111 460.908C634.753 458.841 634.739 456.729 635.069 454.657C635.356 452.206 635.923 449.692 636.217 447.192C636.57 444.149 636.71 441.085 636.637 438.023C636.385 425.557 633.312 413.385 631.387 401.122C630.207 394.322 629.738 387.418 629.987 380.521C630.106 378.272 626.606 378.279 626.487 380.521H626.515Z" fill="white"/>
<path d="M677.923 482.514L703.753 451.417L711.096 442.569C711.413 442.235 711.59 441.793 711.59 441.333C711.59 440.873 711.413 440.43 711.096 440.097C710.766 439.774 710.322 439.593 709.86 439.593C709.398 439.593 708.955 439.774 708.625 440.097L682.795 471.201L675.452 480.042C675.134 480.376 674.957 480.818 674.957 481.278C674.957 481.738 675.134 482.181 675.452 482.514C675.781 482.839 676.225 483.021 676.687 483.021C677.15 483.021 677.594 482.839 677.923 482.514Z" fill="white"/>
<path d="M723.78 440.292C732.331 446.165 739.264 454.09 743.94 463.338C745.247 465.918 746.363 468.591 747.279 471.334C747.559 472.151 748.511 472.919 749.435 472.556C757.762 469.265 767.022 469.205 775.391 472.388C775.839 472.509 776.317 472.448 776.721 472.219C777.124 471.99 777.421 471.612 777.547 471.166C777.66 470.72 777.595 470.248 777.367 469.848C777.139 469.449 776.764 469.153 776.322 469.022C767.348 465.642 757.438 465.699 748.504 469.183L750.653 470.405C747.152 459.971 741.064 450.588 732.957 443.128C730.619 441.014 728.135 439.068 725.523 437.303C725.121 437.074 724.645 437.011 724.197 437.128C723.749 437.246 723.365 437.535 723.129 437.932C722.903 438.333 722.842 438.806 722.958 439.251C723.075 439.696 723.359 440.08 723.752 440.32L723.78 440.292Z" fill="white"/>
<path d="M786.654 421.123C791.666 408.319 798.762 396.427 807.654 385.926C810.181 382.937 812.855 380.067 815.648 377.323C817.258 375.744 814.78 373.279 813.17 374.857C803.027 384.817 794.603 396.379 788.236 409.076C786.416 412.708 784.736 416.43 783.294 420.25C783.175 420.697 783.237 421.173 783.466 421.575C783.695 421.977 784.073 422.274 784.519 422.401C784.966 422.51 785.438 422.444 785.837 422.217C786.237 421.989 786.534 421.618 786.668 421.179L786.654 421.123Z" fill="white"/>
<path d="M337.022 487.165C337.301 487.165 337.568 487.055 337.765 486.859C337.962 486.662 338.072 486.396 338.072 486.118C338.072 485.84 337.962 485.574 337.765 485.377C337.568 485.181 337.301 485.07 337.022 485.07C336.744 485.07 336.477 485.181 336.28 485.377C336.083 485.574 335.972 485.84 335.972 486.118C335.972 486.396 336.083 486.662 336.28 486.859C336.477 487.055 336.744 487.165 337.022 487.165Z" fill="white"/>
<path d="M429.716 414.544C437.234 421.968 441.756 431.703 445.704 441.34C449.652 450.977 453.159 461.089 458.913 469.909C462.019 474.797 465.992 479.078 470.638 482.542C471.723 483.338 472.738 481.523 471.695 480.734C463.351 474.637 458.171 465.496 454.062 456.229C449.792 446.571 446.502 436.472 441.462 427.157C438.757 421.978 435.299 417.227 431.2 413.057C431.003 412.861 430.735 412.751 430.456 412.751C430.177 412.752 429.91 412.863 429.713 413.06C429.516 413.258 429.406 413.525 429.406 413.803C429.407 414.081 429.519 414.348 429.716 414.544Z" fill="white"/>
</g>
<defs>
<clipPath id="clip0_8_272">
<rect width="685" height="184" fill="white" transform="translate(147 332)"/>
</clipPath>
</defs>
</svg>
