<svg width="32" height="32" viewBox="0 0 32 32" fill="none" xmlns="http://www.w3.org/2000/svg">
<path d="M18.1209 16L24.0584 10.0625C24.3402 9.78124 24.4987 9.39953 24.4991 9.00136C24.4994 8.6032 24.3416 8.22121 24.0603 7.93941C23.779 7.65762 23.3973 7.49911 22.9991 7.49876C22.601 7.49841 22.219 7.65624 21.9372 7.93754L15.9997 13.875L10.0622 7.93754C9.78038 7.65575 9.39819 7.49744 8.99967 7.49744C8.60116 7.49744 8.21896 7.65575 7.93717 7.93754C7.65538 8.21933 7.49707 8.60152 7.49707 9.00004C7.49707 9.39855 7.65538 9.78075 7.93717 10.0625L13.8747 16L7.93717 21.9375C7.65538 22.2193 7.49707 22.6015 7.49707 23C7.49707 23.3986 7.65538 23.7807 7.93717 24.0625C8.21896 24.3443 8.60116 24.5026 8.99967 24.5026C9.39819 24.5026 9.78038 24.3443 10.0622 24.0625L15.9997 18.125L21.9372 24.0625C22.219 24.3443 22.6012 24.5026 22.9997 24.5026C23.3982 24.5026 23.7804 24.3443 24.0622 24.0625C24.344 23.7807 24.5023 23.3986 24.5023 23C24.5023 22.6015 24.344 22.2193 24.0622 21.9375L18.1209 16Z" fill="white"/>
</svg>
