<svg width="601" height="601" viewBox="0 0 601 601" fill="none" xmlns="http://www.w3.org/2000/svg">
<g filter="url(#filter0_f_344_18)">
<path d="M330.651 182H270.349C221.555 182 182 221.555 182 270.349V330.651C182 379.445 221.555 419 270.349 419H330.651C379.445 419 419 379.445 419 330.651V270.349C419 221.555 379.445 182 330.651 182Z" fill="url(#paint0_linear_344_18)"/>
</g>
<g filter="url(#filter1_d_344_18)">
<path d="M330.651 182H270.349C221.555 182 182 221.555 182 270.349V330.651C182 379.445 221.555 419 270.349 419H330.651C379.445 419 419 379.445 419 330.651V270.349C419 221.555 379.445 182 330.651 182Z" fill="url(#paint1_linear_344_18)"/>
</g>
<path d="M372.808 266.924L337.945 232.062L303.083 266.924L337.945 301.787L372.808 266.924Z" fill="white"/>
<path d="M303.081 266.924L268.219 232.062L232.82 267.461L267.682 302.324L303.081 266.924Z" fill="white"/>
<path d="M302.546 337.186L267.684 302.323L232.821 337.186L267.684 372.049L302.546 337.186Z" fill="white"/>
<path d="M372.808 336.65L337.945 301.787L302.546 337.186L337.409 372.049L372.808 336.65Z" fill="white"/>
<defs>
<filter id="filter0_f_344_18" x="0" y="0" width="601" height="601" filterUnits="userSpaceOnUse" color-interpolation-filters="sRGB">
<feFlood flood-opacity="0" result="BackgroundImageFix"/>
<feBlend mode="normal" in="SourceGraphic" in2="BackgroundImageFix" result="shape"/>
<feGaussianBlur stdDeviation="91" result="effect1_foregroundBlur_344_18"/>
</filter>
<filter id="filter1_d_344_18" x="178" y="182" width="245" height="245" filterUnits="userSpaceOnUse" color-interpolation-filters="sRGB">
<feFlood flood-opacity="0" result="BackgroundImageFix"/>
<feColorMatrix in="SourceAlpha" type="matrix" values="0 0 0 0 0 0 0 0 0 0 0 0 0 0 0 0 0 0 127 0" result="hardAlpha"/>
<feOffset dy="4"/>
<feGaussianBlur stdDeviation="2"/>
<feComposite in2="hardAlpha" operator="out"/>
<feColorMatrix type="matrix" values="0 0 0 0 0 0 0 0 0 0 0 0 0 0 0 0 0 0 0.25 0"/>
<feBlend mode="normal" in2="BackgroundImageFix" result="effect1_dropShadow_344_18"/>
<feBlend mode="normal" in="SourceGraphic" in2="effect1_dropShadow_344_18" result="shape"/>
</filter>
<linearGradient id="paint0_linear_344_18" x1="419" y1="419" x2="182" y2="182" gradientUnits="userSpaceOnUse">
<stop stop-color="#0075FF"/>
<stop offset="1" stop-color="#00C2FF"/>
</linearGradient>
<linearGradient id="paint1_linear_344_18" x1="419" y1="419" x2="182" y2="182" gradientUnits="userSpaceOnUse">
<stop stop-color="#0075FF"/>
<stop offset="1" stop-color="#00C2FF"/>
</linearGradient>
</defs>
</svg>
